<svg xmlns="http://www.w3.org/2000/svg" id="Layer_1" data-name="Layer 1" viewBox="0 0 341 42.66"><defs><style>.cls-1{fill:#d0a140;}</style></defs><title>logo_nova_noiva_home</title><path class="cls-1" d="M4,33.56H9.28s23.18,33,25.44,36.16V33.56h3.89V73.78h-5.2L7.68,37.93V73.79H4Z" transform="translate(-4 -32)"></path><path class="cls-1" d="M59.42,43.19a15.93,15.93,0,0,1,7.48,1.68,11.86,11.86,0,0,1,5.34,5.46A18.25,18.25,0,0,1,74,57.46a20.76,20.76,0,0,1-1.26,8.74A12.23,12.23,0,0,1,67.91,72a14.64,14.64,0,0,1-8,2.18,15.16,15.16,0,0,1-8.09-1.93,12.72,12.72,0,0,1-4.94-5.47A18.35,18.35,0,0,1,45,59.61a19.75,19.75,0,0,1,1.31-8A12.64,12.64,0,0,1,51,45.42a14.75,14.75,0,0,1,8.39-2.23M59.17,46q-7.76.06-9.84,7.11a20.23,20.23,0,0,0-.74,6.65,15.86,15.86,0,0,0,1.43,6q2.65,5.81,9.73,5.77a10.11,10.11,0,0,0,6.3-1.86q4.71-3.66,4.35-11.72a18.42,18.42,0,0,0-1.32-6.21Q66.71,45.93,59.17,46" transform="translate(-4 -32)"></path><polygon class="cls-1" points="76.25 12.18 86.46 38.87 96.62 12.18 100.63 12.18 88.65 41.78 84.34 41.81 72.32 12.18 76.25 12.18"></polygon><path class="cls-1" d="M127.16,73.44l0-18.21-.13-.12A8.11,8.11,0,0,1,124,57.19c-.68.27-1.51.56-2.47.86L118,59.13q-5.52,1.56-7.41,4.09a5.21,5.21,0,0,0-1.16,4.08c.51,2.67,3.05,4.34,7.44,4.32a21.31,21.31,0,0,0,6.67-1.25L123,73.15a29.55,29.55,0,0,1-6.11.85,17.44,17.44,0,0,1-7.72-1.49q-3.14-1.53-3.34-6A6.77,6.77,0,0,1,108,60.7a16.39,16.39,0,0,1,6.75-3.36l3.57-.88A34.81,34.81,0,0,0,123.06,55,8,8,0,0,0,126,53.18a3.67,3.67,0,0,0,1-2.77,4.06,4.06,0,0,0-2.22-3.55,10.91,10.91,0,0,0-5.51-1.17,22.36,22.36,0,0,0-10.18,2.36V45a33,33,0,0,1,9.75-1.63q5.61,0,8.62,1.57a6.37,6.37,0,0,1,3.35,5.89V73.44Z" transform="translate(-4 -32)"></path><path class="cls-1" d="M152.79,34h5.28s23.17,33,25.44,36.16V34h3.89V74.22H182.2L156.47,38.37V74.22h-3.69Z" transform="translate(-4 -32)"></path><path class="cls-1" d="M208.21,43.63a15.84,15.84,0,0,1,7.48,1.68A11.86,11.86,0,0,1,221,50.77a18.19,18.19,0,0,1,1.72,7.12,20.66,20.66,0,0,1-1.25,8.75,12.28,12.28,0,0,1-4.8,5.84,14.68,14.68,0,0,1-8,2.18,15.21,15.21,0,0,1-8.08-1.93,12.75,12.75,0,0,1-4.94-5.48A18.32,18.32,0,0,1,193.78,60a20,20,0,0,1,1.32-8,12.7,12.7,0,0,1,4.71-6.16,14.71,14.71,0,0,1,8.4-2.23M208,46.4q-7.76,0-9.84,7.11a20.17,20.17,0,0,0-.74,6.64,15.85,15.85,0,0,0,1.42,6q2.67,5.82,9.74,5.77a10.19,10.19,0,0,0,6.3-1.85c3.13-2.44,4.59-6.35,4.34-11.72a18.42,18.42,0,0,0-1.31-6.21q-2.38-5.76-9.91-5.71" transform="translate(-4 -32)"></path><polygon class="cls-1" points="237.02 12.61 247.23 39.31 257.38 12.61 261.39 12.62 249.41 42.22 245.1 42.24 233.08 12.61 237.02 12.61"></polygon><path class="cls-1" d="M287.93,73.88l0-18.21-.12-.12a8,8,0,0,1-3.14,2.07c-.69.28-1.51.57-2.47.87l-3.45,1.07c-3.68,1-6.15,2.41-7.41,4.09a5.18,5.18,0,0,0-1.15,4.08c.5,2.68,3,4.35,7.43,4.32a21.38,21.38,0,0,0,6.68-1.24l-.57,2.78a29.56,29.56,0,0,1-6.1.85A17.45,17.45,0,0,1,269.94,73c-2.09-1-3.21-3-3.34-6a6.76,6.76,0,0,1,2.18-5.84,16.53,16.53,0,0,1,6.75-3.37l3.57-.87a37.38,37.38,0,0,0,4.72-1.47,8,8,0,0,0,2.89-1.82,3.64,3.64,0,0,0,1-2.77,4.07,4.07,0,0,0-2.22-3.55A11.12,11.12,0,0,0,280,46.12a22.49,22.49,0,0,0-10.18,2.37v-3a32.66,32.66,0,0,1,9.76-1.63q5.59,0,8.61,1.57a6.35,6.35,0,0,1,3.36,5.89V73.88Z" transform="translate(-4 -32)"></path><rect class="cls-1" x="225.25" y="12.78" width="3.74" height="29.68"></rect><path class="cls-1" d="M334.3,58.87l-4.29,0-4.28,0-1.52-4-1.49-4-1.5,4-1.53,4h-4.27l-4.3,0,3.23,2.82,3.19,2.85-.73,3.56-.91,4.2,3.43-2.59,3.39-2.51,3.38,2.5,3.42,2.59-.9-4.2-.73-3.56,3.18-2.84Zm-14.6,0-.05.12,0-.12Z" transform="translate(-4 -32)"></path><path class="cls-1" d="M319.92,40.5l-2.41,0H315.1l-.86-2.24L313.4,36l-.84,2.27-.86,2.24h-2.4l-2.42,0,1.82,1.6,1.79,1.6-.41,2-.51,2.36,1.93-1.45,1.9-1.41,1.91,1.4,1.92,1.46-.51-2.36-.41-2,1.79-1.6Zm-8.21,0,0,.06,0-.06Z" transform="translate(-4 -32)"></path><path class="cls-1" d="M345,36.49l-2.41,0h-2.41l-.86-2.23L338.48,32l-.84,2.27-.86,2.23h-2.4l-2.42,0,1.82,1.59,1.79,1.61-.41,2-.51,2.36,1.93-1.46,1.9-1.41,1.9,1.41,1.93,1.46-.51-2.36-.41-2,1.79-1.6Zm-8.22,0,0,.07,0-.07Z" transform="translate(-4 -32)"></path></svg>